# xmcd CD database file
#
# Track frame offsets:
#	150
#	18101
#	34194
#	50787
#	69133
#	85269
#	101366
#	117796
#	135890
#	156448
#	174728
#	195026
#	211541
#
# Disc length: 3093 seconds
#
# Revision: 1
# Processed by: cddbd v1.5.2PL0 Copyright (c) Steve Scherf et al.
# Submitted via: jetAudio 5
#
DISCID=970c130d
DTITLE=Zucchero - Fly
DYEAR=1900
DGENRE=
TTITLE0=Bacco Perbacco
TTITLE1=Un Kilo
TTITLE2=Occhi
TTITLE3=Quanti Anni Ho
TTITLE4=Cuba Libre
TTITLE5=E' Delicato
TTITLE6=L'Amore è Nell'Aria
TTITLE7=Pronto
TTITLE8=Let It Shine
TTITLE9=Troppa Fedeltà
TTITLE10=Nel Così Blu
TTITLE11=Flying Away (bonus track)
TTITLE12=Shine (bonus track)
EXTD=
EXTT0=
EXTT1=
EXTT2=
EXTT3=
EXTT4=
EXTT5=
EXTT6=
EXTT7=
EXTT8=
EXTT9=
EXTT10=
EXTT11=
EXTT12=
PLAYORDER=
